<?xml version="1.0" encoding="iso-8859-1"?>
<!-- Uploaded to: SVG Repo, www.svgrepo.com, Generator: SVG Repo Mixer Tools -->
<svg height="800px" width="800px" version="1.1" id="Layer_1" xmlns="http://www.w3.org/2000/svg" xmlns:xlink="http://www.w3.org/1999/xlink" 
	 viewBox="0 0 512 512" xml:space="preserve">
<circle style="fill:#FF2615;" cx="256" cy="256" r="245.801"/>
<path style="fill:#FF6666;" d="M256,512c-68.381,0-132.667-26.628-181.019-74.981C26.628,388.667,0,324.381,0,256
	S26.628,123.333,74.981,74.981C123.333,26.628,187.619,0,256,0s132.667,26.628,181.019,74.981C485.372,123.333,512,187.619,512,256
	s-26.628,132.667-74.981,181.019C388.667,485.372,324.381,512,256,512z M256,20.398C126.089,20.398,20.398,126.089,20.398,256
	S126.089,491.602,256,491.602S491.602,385.911,491.602,256S385.911,20.398,256,20.398z"/>
<polygon style="fill:#26A6D1;" points="256,259.696 434.178,349.155 434.178,252.304 256,162.845 77.822,252.304 77.822,349.155 "/>
<g>
	<path style="fill:#FF6666;" d="M434.178,359.355c-1.565,0-3.132-0.36-4.576-1.084L256,271.108L82.398,358.269
		c-3.163,1.589-6.919,1.425-9.931-0.434c-3.011-1.857-4.845-5.142-4.845-8.681v-96.852c0-3.856,2.177-7.384,5.623-9.115
		l178.178-89.459c2.88-1.446,6.273-1.446,9.154,0l178.178,89.459c3.446,1.73,5.623,5.258,5.623,9.115v96.852
		c0,3.538-1.834,6.822-4.845,8.681C437.898,358.846,436.039,359.355,434.178,359.355z M256,249.497c1.569,0,3.136,0.361,4.576,1.084
		l163.402,82.04v-74.027L256,174.257L88.021,258.596v74.027l163.402-82.04C252.864,249.859,254.431,249.497,256,249.497z"/>
	<path style="fill:#FF6666;" d="M459.346,213.165c-4.533,0-8.67-3.042-9.864-7.634c-13.345-51.309-47.438-96.031-93.537-122.697
		c-4.876-2.821-6.543-9.06-3.722-13.935c2.821-4.876,9.061-6.545,13.935-3.722c50.791,29.381,88.357,78.666,103.065,135.221
		c1.419,5.451-1.851,11.02-7.304,12.437C461.06,213.058,460.195,213.165,459.346,213.165z"/>
	<path style="fill:#FF6666;" d="M329.619,69.358c-1.187,0-2.394-0.209-3.571-0.649c-2.629-0.983-5.301-1.919-7.94-2.781
		c-5.355-1.749-8.278-7.507-6.529-12.861c1.749-5.355,7.508-8.28,12.861-6.529c2.911,0.951,5.854,1.981,8.751,3.064
		c5.276,1.974,7.954,7.848,5.982,13.125C337.641,66.826,333.751,69.358,329.619,69.358z"/>
</g>
</svg>