<?xml version="1.0" encoding="iso-8859-1"?>
<!-- Uploaded to: SVG Repo, www.svgrepo.com, Generator: SVG Repo Mixer Tools -->
<svg height="800px" width="800px" version="1.1" id="Layer_1" xmlns="http://www.w3.org/2000/svg" xmlns:xlink="http://www.w3.org/1999/xlink" 
	 viewBox="0 0 512 512" xml:space="preserve">
<circle style="fill:#FF2615;" cx="256" cy="256" r="245.801"/>
<path style="fill:#FF6666;" d="M256,512c-68.381,0-132.667-26.628-181.019-74.981C26.628,388.667,0,324.381,0,256
	S26.628,123.333,74.981,74.981C123.333,26.628,187.619,0,256,0s132.667,26.628,181.019,74.981C485.372,123.333,512,187.619,512,256
	s-26.628,132.667-74.981,181.019C388.667,485.372,324.381,512,256,512z M256,20.398C126.089,20.398,20.398,126.089,20.398,256
	S126.089,491.602,256,491.602S491.602,385.911,491.602,256S385.911,20.398,256,20.398z"/>
<polygon style="fill:#26A6D1;" points="256,252.304 77.822,162.845 77.822,259.696 256,349.155 434.178,259.696 434.178,162.845 "/>
<g>
	<path style="fill:#FF6666;" d="M256,359.355c-1.569,0-3.136-0.361-4.576-1.084L73.245,268.811c-3.446-1.73-5.623-5.258-5.623-9.115
		v-96.852c0-3.538,1.834-6.822,4.845-8.681c3.01-1.858,6.768-2.021,9.931-0.434L256,240.892l173.602-87.161
		c3.164-1.587,6.919-1.424,9.931,0.434c3.011,1.857,4.845,5.142,4.845,8.681v96.852c0,3.856-2.177,7.384-5.623,9.115
		l-178.178,89.459C259.136,358.993,257.569,359.355,256,359.355z M88.021,253.404L256,337.743l167.979-84.338v-74.027
		l-163.402,82.04c-2.88,1.446-6.273,1.446-9.154,0l-163.401-82.04V253.404z"/>
	<path style="fill:#FF6666;" d="M309.029,469.555c-4.533,0-8.67-3.043-9.864-7.635c-1.419-5.451,1.851-11.02,7.304-12.437
		c51.309-13.345,96.031-47.438,122.697-93.537c2.821-4.875,9.062-6.543,13.935-3.722c4.876,2.821,6.543,9.06,3.722,13.935
		c-29.381,50.791-78.666,88.357-135.221,103.065C310.743,469.447,309.878,469.555,309.029,469.555z"/>
	<path style="fill:#FF6666;" d="M452.844,339.822c-1.187,0-2.394-0.209-3.571-0.649c-5.276-1.974-7.954-7.848-5.982-13.125
		c0.983-2.629,1.919-5.301,2.781-7.94c1.749-5.355,7.51-8.277,12.861-6.529c5.355,1.749,8.278,7.507,6.529,12.861
		c-0.951,2.911-1.981,5.854-3.064,8.751C460.865,337.29,456.976,339.822,452.844,339.822z"/>
</g>
</svg>